
<svg xmlns="http://www.w3.org/2000/svg" xmlns:xlink="http://www.w3.org/1999/xlink" xmlns:a="http://ns.adobe.com/AdobeSVGViewerExtensions/3.0/" version="1.1" width="75" height="124" viewBox="-0.58 -0.044 75 124" enable-background="new -0.58 -0.044 75 124" xml:space="preserve"><path d="M46.02 85.094c0-2.584 0.797-5.025-0.057-7.611 -1.73 0.572-3.969-0.506-5.396 0.928 -0.293 0.869 0.645 2.801 0.063 3.096 -1.139 0.566-0.641-2.16-1.793-2.445 -0.568 0-1.158-0.295-1.718 0 -0.869 0.572-1.15 1.725-1.443 2.875 -0.293-0.289-0.576 0.574-0.857 0.285 -0.297-1.436 1.15-3.455 0.281-3.74 -2.305-0.285-4.891 0.58-7.473 0.865 0.072 11.582 0 22.711 0 33.93 0 0.564 0.578 0.275 0.859 0.564 5.168 0.867 9.783 2.596 14.947 3.166 0.865 0.289 2.57 1.301 2.588 0.434C46.239 106.732 46.02 95.734 46.02 85.094M29.925 47.43c-0.867-0.045-2.564-0.281-2.588 0.58 -0.285 10.063 0 19.906 0.289 29.615 2.299-0.291 4.883 0 7.191-1.443 0.857-0.572-0.859-1.432-0.859-2.592 0-0.283 0.281-0.283 0.563-0.283 0.861 0.865 1.447 1.443 2.297 2.303 0.301 0 0.582 0 0.582-0.285 0 0.285 0.279 0.566 0.578 0.285 0.859-0.859 0.859-2.303 2.012-3.164 0.285 1.145-0.582 2.879 0 3.164 1.436 1.152 3.734 0.281 5.465-0.58 1.141-0.578 0.566-2.865 0.566-4.307 -0.566-7.773 0-15.24-0.287-23C40.702 47.43 35.099 47.723 29.925 47.43zM32.224 19.537c-3.502 4.574-4.598 10.646-1.15 15.533 1.721 2.297 3.744 3.734 5.465 5.752 0-3.455-0.289-6.613 0.861-10.066 2.007-6.033 6.611-10.344 9.195-16.088 1.154-3.164 1.729-6.906-0.281-10.072 -0.58-0.865-0.58 0.289-0.859 0.289 0 2.295-1.73 4.033-3.459 5.463C38.547 13.219 35.099 15.807 32.224 19.537zM11.392 84.443c-3.23 1.623-6.057 4.541-6.477 8.348 -0.066 0.631 2.002-1.084 3.152-0.793 0 0 0 0.859-0.279 0.859 -1.721 0-2.309 1.443-1.721 2.594 0.568 1.15 2.865 0.283 2.592 1.438 0 0.855-1.156-0.287-2.023 0 -0.283 0-0.283 0.295-0.283 0.568 2.002 3.457 5.459 5.746 9.195 6.043 0.859 0 0-1.721 0-2.586 0-0.295 0.578-0.295 0.859-0.295 0 1.729 0.578 3.738 2.588 3.449 0.859 0 1.438-1.439 2.596-2.012 0.289 1.443-2.018 2.521-0.857 3.385 0.275 0.578 1.906 1.143 1.934 0.281 0.291-8.266 0.211-16.031 0-24.662 -1.729 0-3.379 0-4.539 0.875 -1.424 0.574 0.867 2.016 0.582 3.158 0 0-0.582 0-0.857 0 -0.867-1.143-1.727-2.299-2.875-1.729 -0.877 0.586-0.281 2.018-0.576 3.166h-0.582c-0.574-0.859 0.152-1.936-0.719-2.514C12.534 83.732 11.956 84.162 11.392 84.443zM53.213 73.885c0.578 0 1.432 0 1.432-0.578 0-1.143-1.432-2.006-1.143-3.16 1.143 0.576 1.43 1.721 2.299 2.59 0 0 0.281-0.291 0.281-0.572 1.734 0.861 2.012-0.863 2.307-2.303 0-0.58 0.574-0.293 0.852-0.293 -0.57 0.865 0 2.299-0.57 3.168 2.016 0.57 3.455-0.869 5.182-0.869 0.861-0.281 1.439-0.857 2.299-1.145 1.436-1.154 2.865-2.586 2.58-4.029 -0.273-0.855-1.727 0.299-2.58 0.299 0-1.443 1.732-1.154 2.307-2.023 0.273-0.863-0.297-1.436-0.871-1.721 -0.582-0.299-1.436 0-2.014 0 0.297-1.439 2.885-0.299 2.311-1.725 -0.879-2.875-4.031-4.322-6.906-5.455 -1.736-0.586-1.158 2.004-1.432 3.152H58.67c-0.281-1.148 0.723-2.588-0.723-2.871 -1.432-0.281-1.568 1.432-3.016 1.432 0.297-1.148 1.15-2.004 1.15-2.863 0-0.871-1.223-0.369-2.078-0.369 -0.863 0.275-1.088 1.363-1.369 1.941 -0.283 2.301 1.285 3.875-0.283 6.184 -0.455 0.672 0.717 1.871 0.422 2.727 -0.564 3.166-2.723 5.609-1.57 8.771C51.493 74.75 52.352 73.885 53.213 73.885zM29.636 12.648c4.77-3.816 10.638-4.887 14.662-9.479 0.578-0.879 0-2.018 0-3.17 3.74 2.291 6.299 5.875 7.477 10.064 2.813 9.918-6.041 16.383-11.785 23.568 -2.012 2.59-2.23 6.393-1.152 9.492 4.309-0.871 8.639-0.291 12.938 0 4.027 0.283 4.605 5.461 3.455 8.912 -0.297 0.281 0.854 0.281 1.432 0.855 0.574-0.855 0.574-2.004 0.574-3.156 1.436 0.568-0.287 2.301 0.859 2.582 0.576 0 0.869 0.873 1.451 0.873 1.141 0 1.713-1.439 2.861-1.439 -0.281 0.855-0.852 1.717-1.43 2.295 3.158 1.73 6.32 3.734 9.199 6.615 0.572 0.861 1.137-1.148 2.301-1.441 0 0.293 0 0.865 0 1.145 -0.291 0.584-0.85 0.869-1.164 1.443 0 0.865 0.584 1.725 0.584 2.584 0.289 0.869 2.01 0 2.314 1.156 -1.734 0.289-3.463 0.57-4.035 2.877 -1.16 4.881-6.695 5.314-10.631 6.818 -0.383 0.158 0.273 2.381 0.273 3.521 -0.273 0-0.855-0.285-0.855-0.285 -0.293-1.43-1.146-2.59-2.584-2.008 -0.875 0-0.875 1.441-1.15 2.293 -0.297 0.58-0.869 0.295-0.869 0 0.285-0.852 0.609-2.359 0-2.584 -0.793-0.291-3.189-0.332-3.156 0.58 0.289 9.922-0.578 18.107 0 27.307 0 0.289-0.289 1.152 0.289 1.152 0.57-0.285 0.57-1.721 0.859-1.152 0.564 0.586 0.283 1.732-0.289 2.596 3.738 0.859 7.482-0.863 10.641-2.01 1.148-0.586-0.867-2.025-0.867-3.174 0.289 0 0.57 0 0.57-0.283 0.578 0.859 1.445 2.303 2.307 2.303 2.02 0.279 2.291-2.02 2.02-3.74 0.271 0 0.93-0.064 0.93-0.064 0.57 1.143-0.076 2.361 0.498 3.508 0.855-1.146 3.014-0.357 2.443 1.088 -0.289 0.287-1.873 0.066-1.873 0.645 -0.273 1.148 1.445 2.588 0.58 3.809 -0.854-0.578-1.15-2.379-2.014-2.379 -2.006-0.281-1.428 2.018-1.428 3.461 0 0.283-0.297 0.564-0.578 0.283 -0.578-1.156-0.246-3.521-0.867-3.377 -3.875 0.855-7.908 1.875-11.789 2.518 -0.629 0.102 0.506 2.002 0.506 3.166 0 0.275-0.789 0-1.078 0 -0.57-0.578 0-1.164-0.57-1.727 -0.867 4.018 0.281 8.045-0.289 12.07 -0.289 0.572-1.152 0.289-1.734 0.289 -8.617-2.299-16.675-4.314-25.587-6.043 -0.283-0.279-1.148-0.279-1.148-0.859 -0.275-2.871 0.508-5.607-0.205-7.98 -0.188-0.623-1.871-0.643-3.027-0.643 -0.354 0-0.287 2.303-0.57 3.166 0 0-0.867 0-1.158 0 0.578-1.439 0.355-3.465-1.365-3.166 -0.564 0-0.809 1.561-1.293 2.154 -0.244 0.303-0.514-0.143-1.014-0.143 0.301-1.152 1.754-3.031 1.014-3.377 -5.018-2.379-7.748-4.172-10.914-8.199 -0.289-0.57-2.459 0.65-3.602 0.363 1.143-1.434 2.297-2.307 1.721-4.316 -0.578-1.148-2.58-0.57-2.291-1.727 0-0.861 1.436 0.578 2.291 0.285 1.154-0.857 0.863-2.584 1.453-4.02 2.012-3.451 5.16-5.461 8.617-7.188 -0.578-1.154-0.869-2.297-1.15-3.732 1.15 0.57 1.15 2.295 2.307 2.578 0.555 0 2.002 0 2.002-0.57 0.289-0.867 0.578-1.719 0.578-2.582 0-0.578 0.859 0 0.859-0.578 0.299 1.152-0.543 3.402 0.58 3.16 1.648-0.354 5.102-0.572 5.102-1.223 0-8.412 0.574-16.453-0.291-24.504 -1.154 0.57-0.785 3.594-2.225 3.016 -0.578-0.289 1.186-3.281 0.281-3.164 -2.73 0.355-6.613 1.725-9.771 2.875 -0.281 0.289-0.863 0.568-0.564 0.867 0.855 0.861 0.855 1.721 1.715 2.586 -0.291 0-0.572 0-0.859 0 -0.855-0.572-1.725-2.305-2.885-1.146 -0.564 0.857 0.078 2.221 0.078 3.375 -0.289 0-0.938-0.227-0.938-0.227 -0.291-1.139-0.291-2.291-0.855-3.148 -0.873 0.857-3.807 2.803-3.236 0.5 0-0.863 2.363-1.367 2.092-2.518 0-0.854-1.16-1.145-1.16-2.301 1.432 0.297 2.588 2.301 3.455 0.861 0.564-0.861 0.285-2.014 0.285-2.875 1.439 0.285 0.279 2.875 1.723 2.311 3.453-0.871 6.615-2.025 10.063-3.463 1.16-0.287-1.445-2.006-0.578-2.582 0.859-0.574 1.156 1.152 2.299 1.725 0.297-0.293 0.586-0.293 0.867-0.293 1.15-2.295-0.281-4.881 0.572-7.18 4.318-0.291 8.617 0.498 13.01-0.215 -3.73-2.592-8.406-4.105-11.275-8.133 -2.588-4.303-3.459-9.189-1.439-13.795C24.468 17.539 26.765 14.951 29.636 12.648z"/></svg>