<?xml version="1.0" encoding="utf-8"?>
<!-- Generator: Adobe Illustrator 19.2.1, SVG Export Plug-In . SVG Version: 6.00 Build 0)  -->
<svg version="1.1" id="Ebene_1" xmlns="http://www.w3.org/2000/svg" xmlns:xlink="http://www.w3.org/1999/xlink" x="0px" y="0px"
	 viewBox="0 0 400 400" style="enable-background:new 0 0 400 400;" xml:space="preserve">
<style type="text/css">
	.st0{fill:#FDFD00;}
</style>
<g>
	<path d="M1.8,220.2c-0.1-1.7-0.3-3.4-0.4-5.1c-0.4-13.3,1.1-26.4,4.4-39.2c1.9-7.5,4.3-14.8,7.2-22c3.6-9,7.8-17.7,12.7-26
		c3.6-6.1,7.3-12,11.1-17.9c6.4-9.8,13.5-19.1,20.9-28.2c5.8-7.1,12.6-13.2,19.9-18.7c8.6-6.5,17.8-12.1,27.4-17.1
		c4.9-2.5,9.8-4.9,14.7-7.2c12-5.5,24.5-9.7,37.4-12.4c11-2.3,22.2-4,33.4-4.2c7.4-0.2,14.7-0.3,22.1-0.1c12,0.3,23.8,1.9,35.6,4
		c12.8,2.3,25.4,5.7,37.6,10.1c10.3,3.7,20.3,8.1,29.9,13.3c9.1,5,17.8,10.6,26,17.1c7.5,5.9,14.4,12.4,20.4,19.9
		c6.5,8.1,12.1,16.9,16.4,26.3c2.6,5.5,5,11.2,7.1,16.9c4.1,10.9,7,22.1,8.9,33.5c1.2,6.9,2.2,13.9,3,20.8
		c1.2,11.4,1.6,22.9,1.1,34.4c-0.3,6.4-0.6,12.9-1.3,19.3c-0.6,5.5-1.6,11-2.7,16.5c-0.7,3.7-1.9,7.3-2.8,10.9c-0.3,1-0.7,2-1.1,3
		c-1.4,1.3-2.8,2.6-4.2,3.9c-3.9,3.3-8.3,5.6-13.4,6.4c-4.2,0.6-8.4,0.3-12.6-0.2c-5-0.6-10-1.3-15.1-0.7
		c-5.3,0.6-10.1,2.3-14.3,5.6c-3.1,2.5-5.6,5.5-7.5,9c-3.2,5.8-6.1,11.7-9.2,17.6c-3.1,5.9-7.2,11-12.9,14.7
		c-4.5,2.9-9.2,5-14.4,6.4c-4.7,1.3-9.5,2.1-14.4,2.2c-4.1,0.1-8.3-0.1-12.4-0.6c-9.4-0.9-17.8-4.5-25.1-10.5
		c-5-4.1-9.8-8.3-14.7-12.4c-3.4-2.9-7-5.3-11.3-6.7c-4.8-1.6-9.6-1.9-14.6-1.3c-6.4,0.8-12.7,2.1-18.8,4.5
		c-5.6,2.3-10.5,5.7-15.5,9.2c-4.2,2.9-8.3,5.9-12.5,8.8c-10.8,7.2-22.6,9.3-35.2,6.4c-8.2-1.9-14.9-6.3-20.2-12.9
		c-3.5-4.4-6-9.4-7.9-14.7c-2.4-6.8-3-13.9-3.7-21c-0.5-5.5-1.1-10.9-2.9-16.1c-1.6-4.9-4.1-9.1-8.6-11.9c-3.1-1.9-6.5-3.3-10.1-3.8
		c-6.4-0.9-12.8-1.6-19.2-2.5c-4.3-0.6-8.6-1.3-12.7-3.1c-7.7-3.4-14.1-8.6-19.4-15.1C6,226.5,4,223.3,1.8,220.2z M150.2,207.5
		c0.3,0.6,0.6,1.1,0.9,1.7c2,3.9,4.6,7.4,7.9,10.4c7.9,7.3,17.3,11.8,27.5,14.8c10.9,3.2,22,4.6,33.3,4.2c8.4-0.3,16.5-2,24-5.8
		c5.4-2.7,10.5-5.9,15.3-9.7c3.4-2.7,6.6-5.7,9.3-9.2c3.1-4.1,5.2-8.6,6.2-13.6c0.8-0.9,1.6-1.8,2.3-2.7c3.5-4.8,6.6-10,9-15.5
		c2.8-6.5,4.8-13.2,5.2-20.2c0.5-8.6-1.6-16.6-5.8-24c-4-6.9-9.4-12.5-16.9-15.8c-8.7-3.9-17.4-4.1-25.9,0.2c-4,2-7.8,4.4-11.7,6.7
		c-4.7,2.7-9.5,5-14.9,5.8c-3,0.5-6,0.8-9,1.1c-6,0.6-11.7-0.4-17.2-2.8c-5-2.2-9.9-4.7-14.9-6.9c-4.3-1.9-8.8-3.1-13.7-2.8
		c-6.9,0.4-12.6,3.3-17.6,7.8c-4.6,4.1-8,9.1-10.4,14.8c-3.1,7.4-4.5,15-3.7,23c0.6,6,2.7,11.5,5.9,16.6c3.3,5.3,7,10.3,10.6,15.5
		C147.2,203.1,148.7,205.3,150.2,207.5z"/>
	<path class="st0" d="M1.8,220.2c2.2,3.1,4.2,6.2,6.5,9.1c5.3,6.5,11.6,11.8,19.4,15.1c4,1.8,8.3,2.5,12.7,3.1
		c6.4,0.8,12.8,1.5,19.2,2.5c3.6,0.5,7,1.9,10.1,3.8c4.5,2.8,7,7,8.6,11.9c1.7,5.2,2.4,10.7,2.9,16.1c0.7,7.1,1.3,14.2,3.7,21
		c1.9,5.3,4.3,10.3,7.9,14.7c5.3,6.6,12,11,20.2,12.9c12.6,2.8,24.4,0.7,35.2-6.4c4.2-2.8,8.4-5.8,12.5-8.8
		c4.9-3.5,9.9-6.9,15.5-9.2c6-2.5,12.3-3.7,18.8-4.5c5-0.6,9.8-0.3,14.6,1.3c4.2,1.4,7.9,3.8,11.3,6.7c4.9,4.1,9.7,8.4,14.7,12.4
		c7.3,6,15.7,9.5,25.1,10.5c4.1,0.4,8.3,0.7,12.4,0.6c4.9-0.1,9.7-1,14.4-2.2c5.1-1.4,9.9-3.5,14.4-6.4c5.7-3.7,9.8-8.8,12.9-14.7
		c3.1-5.9,6-11.8,9.2-17.6c1.9-3.4,4.4-6.5,7.5-9c4.2-3.4,9-5,14.3-5.6c5.1-0.6,10.1,0.1,15.1,0.7c4.2,0.5,8.4,0.8,12.6,0.2
		c5.1-0.7,9.5-3,13.4-6.4c1.5-1.2,2.8-2.6,4.2-3.9c-1.1,3.2-2.1,6.4-3.4,9.5c-3.2,8.3-7.2,16.2-11.7,23.8
		c-4.9,8.4-10.6,16.2-17.1,23.5c-5.7,6.4-11.9,12.2-18.8,17.2c-10.3,7.4-21.3,13.3-33.1,17.8c-6,2.3-12,4.5-18.1,6.4
		c-10.7,3.4-21.6,6.2-32.7,8.1c-9.8,1.7-19.6,3.1-29.5,3.6c-5.6,0.3-11.1,0.5-16.7,0.6c-5.5,0.1-11,0.2-16.5-0.1
		c-8.9-0.5-17.9-1.3-26.8-2.3c-11.9-1.3-23.6-3.5-35.1-6.6c-7.6-2.1-15.1-4.4-22.6-6.9c-7.3-2.4-14.4-5.4-21.4-8.8
		c-6.4-3.2-12.6-6.8-18.5-10.9c-8-5.5-15.3-11.8-21.9-18.9c-7.2-7.7-13.5-16.1-18.9-25.1c-7.1-11.8-12.7-24.4-17.2-37.4
		c-3.2-9.3-6-18.7-7.6-28.5C2.7,228.9,2.3,224.6,1.8,220.2z"/>
	<path class="st0" d="M274.6,200.2c0.5-3.4,0.4-6.8-0.3-10.2c-1.1-5.2-3.5-9.8-6.7-13.9c-8.1-10.5-18.7-17.3-31.2-21.3
		c-5.2-1.7-10.7-2.2-16.2-2.4c-9.1-0.3-18.1,0.3-27,1.9c-7.4,1.3-14.6,3.3-21.4,6.5c-6.5,3-12.3,6.9-16.8,12.6
		c-4.2,5.3-6.2,11.4-6.9,18c-0.6,5.3,0.1,10.5,2.1,15.5c0.1,0.2,0.1,0.5,0.1,0.7c-1.5-2.2-3.1-4.4-4.6-6.6
		c-3.5-5.1-7.2-10.2-10.6-15.5c-3.2-5-5.3-10.6-5.9-16.6c-0.8-8,0.6-15.6,3.7-23c2.4-5.7,5.7-10.7,10.4-14.8
		c5-4.5,10.8-7.4,17.6-7.8c4.8-0.3,9.3,0.9,13.7,2.8c5,2.2,9.9,4.7,14.9,6.9c5.5,2.4,11.2,3.4,17.2,2.8c3-0.3,6-0.6,9-1.1
		c5.4-0.8,10.2-3.1,14.9-5.8c3.9-2.3,7.7-4.7,11.7-6.7c8.6-4.3,17.3-4,25.9-0.2c7.4,3.3,12.8,8.8,16.9,15.8c4.3,7.4,6.3,15.4,5.8,24
		c-0.4,7.1-2.4,13.8-5.2,20.2c-2.4,5.5-5.4,10.6-9,15.5C276.2,198.4,275.3,199.3,274.6,200.2z"/>
</g>
</svg>
