<?xml version="1.0" encoding="UTF-8" standalone="no"?>
<!-- Created with Inkscape (http://www.inkscape.org/) -->
<svg
   xmlns:svg="http://www.w3.org/2000/svg"
   xmlns="http://www.w3.org/2000/svg"
   version="1.0"
   width="500"
   height="185"
   id="svg2"
   xml:space="preserve"><defs
     id="defs6" /><g
     transform="matrix(1.25,0,0,-1.25,-85.03875,263.0965)"
     id="g12"><path
       d="m 68.031,62.551707 400,0 0,147.850983 -400,0 0,-147.850983 z"
       id="path28"
       style="fill:transparent;fill-opacity:1;fill-rule:nonzero;stroke:none" /><path
       d="m 403.87691,84.443394 c 0,-1.717141 -0.57341,-2.124001 -2.03763,-1.798751 l -15.58513,3.103083 c -0.90128,0.157034 -1.39451,0.733063 -1.39451,1.709527 l 0,28.240867 c 0,0.73116 2.53276,0.813 2.93772,0.4868 0.73687,-0.65217 0.49252,-3.01862 0.98218,-3.01862 0.65216,0 2.36454,2.85516 3.09951,2.85516 1.55059,0 2.61176,-0.89485 2.93701,-0.73116 0.32406,0.16061 0.32406,1.46898 0.73592,1.7978 0.57317,0.40329 2.28365,0.40329 3.17945,0.48681 1.4697,0.0828 4.16426,0.3262 4.16426,0.3262 1.06378,0 0.98122,-0.73687 0.98122,-2.28675 l 0,-31.171918 0,9.52e-4 z m -19.01727,61.285776 c 0,1.30933 0.98479,1.79518 1.87394,1.79518 l 14.45353,0 c 1.79042,0 2.52896,-0.56865 2.52896,-2.44449 l 0.0752,-24.97671 c 0,-0.81396 -8.48744,-1.06402 -8.81078,-0.48775 -0.48966,0.81372 -0.25007,2.2018 -0.73497,2.2018 -0.24435,0 -1.54987,-1.95935 -2.28651,-1.95935 -0.73115,0 -1.95483,1.38998 -2.44449,1.38998 -0.33001,0 0.32692,-1.95864 -0.33001,-2.7745 -0.40495,-0.57222 -4.32485,-0.98194 -4.32485,-0.49228 l 0,27.74717 0,9.5e-4 z m 2.20656,20.64994 c 0,11.26099 16.64987,17.70438 17.78622,23.41946 1.22915,-1.14278 1.38999,-3.01601 1.38999,-4.65035 0,-6.855 -11.91506,-18.36225 -11.91506,-26.68528 0,-0.89747 0.0807,-1.14563 0.0807,-1.71904 0,-0.81087 -0.32335,-0.97646 -0.48681,-0.97646 -1.96244,0 -6.855,3.83923 -6.855,10.61167 z m 22.35472,-26.52372 c 0,0 0.16726,0 1.14944,-0.24626 0.65216,-0.1606 1.30147,-0.48871 1.30147,-1.38618 0,-0.48966 -0.17012,-1.47088 0.1656,-1.63434 0.33168,-0.16274 0.56675,0.16346 0.73211,0.24531 3.01767,2.20275 3.75359,-1.70953 4.40671,-1.70953 0.57317,0 0.49441,2.68956 1.30552,2.68956 0.65787,0.24435 6.94042,-2.77331 6.94042,-4.73481 0,-0.40781 -0.82134,-0.48775 -0.89557,-0.89937 -0.0818,-0.56937 1.46803,-0.81396 1.21987,-1.87394 -0.0835,-0.65692 -1.55059,-1.46898 -1.14564,-1.87394 0.41543,-0.41352 2.37026,0.40496 2.53943,0.40496 0.404,0 0.483,-0.65217 0.483,-0.89747 0,-3.59108 -8.40012,-6.28754 -10.28453,-5.46882 -0.57317,0.24435 -0.6455,2.03834 -0.97551,2.03834 -0.49133,0 -0.74139,-1.63053 -1.71429,-1.87489 -0.98193,-0.16345 -2.44425,1.06117 -2.85873,0.73783 -0.40709,-0.33001 0.97932,-2.61652 -1.71333,-2.61652 -0.65597,0 -0.65597,0.73877 -0.65597,1.31099 l 0,17.79003 0,-9.5e-4 z m 0,10.69234 c 0,1.38618 -0.97647,2.44639 -2.03097,2.44639 l -8.8184,0 c -2.4464,0 -2.2877,1.79685 -2.2877,2.20395 2.4e-4,10.85294 15.75358,12.64907 15.75358,26.84969 0,6.20188 -3.91537,10.36637 -8.48577,14.03811 -0.24816,0.16369 0,-0.89748 0,-1.31005 0,-6.60779 -24.56413,-10.03636 -24.56413,-25.2991 0,-13.29767 13.21772,-13.87084 13.21772,-15.91204 0,-0.40805 -0.8111,-0.57056 -0.89771,-0.57056 l -10.12083,0 c -1.06021,0 -2.03763,-1.06117 -2.03763,-2.44639 l 0,-8.16433 c -0.98289,-0.32787 -2.20204,1.14468 -2.85992,1.14468 -0.32311,0 -0.15584,-2.53277 -0.73211,-2.85707 -0.49061,-0.24435 -9.7054,-3.51018 -10.53054,-3.59084 -1.29982,-0.24625 -0.97457,2.04025 -1.70691,2.04025 -0.65788,0 -0.65788,-2.2865 -2.29222,-2.2865 -0.97456,0 -1.78733,0.89937 -2.52135,0.89937 -0.48966,0 1.05713,-1.87869 1.05713,-2.44925 0,-1.55154 -3.01767,-2.11829 -3.01767,-3.18422 0,-0.56651 2.85611,0.24816 3.26392,0.24816 1.46613,0 1.30553,-1.7169 1.87037,-1.7169 0.57603,0 0.98194,1.96031 1.47255,2.2827 0.97932,0.57532 2.124,-0.404 2.61176,-0.404 0.81872,0 -0.65407,1.95673 0.0876,2.2865 0,0 9.95166,4.24039 10.60026,3.91823 0.57127,-0.33096 0.49513,-1.30837 1.14753,-1.63434 0.65122,-0.3281 1.63149,2.28366 1.63149,0.65312 l 0,-19.99659 c -1.14468,-0.73306 -3.59298,-1.14302 -4.89946,-1.14302 -0.65026,0 -0.32406,2.12044 -0.73211,2.12044 -0.65764,0 -1.31385,-1.79328 -2.2865,-1.79328 -0.89557,0 -2.203,2.20014 -3.09857,2.20014 -0.57055,0 1.05641,-2.76975 0.079,-3.25941 -3.75383,-1.88059 -9.7104,-3.67173 -9.7104,-9.63212 0,-1.22462 0.65716,-2.69075 0.409,-3.09761 -0.24531,-0.57151 -1.54702,-1.71619 -1.47469,-2.2068 0,-0.48871 2.4521,-0.32525 2.94533,-1.062829 0.24055,-0.405195 0.40805,-2.202042 0.89962,-2.202042 0.404,0 1.46327,1.390938 2.36454,0.898423 2.85612,-1.718092 7.83052,-3.589174 10.11726,-4.8138 0.56747,-0.328819 0.24246,-2.121146 0.56747,-2.284604 0.65502,-0.330009 1.95864,1.713096 4.0046,0.567463 0.41067,-0.162506 0.70855,-0.559135 0.70855,-1.293149 l 0,-6.677506 c -0.005,-1.399267 0.67572,-1.737603 1.33098,-1.901061 l 24.31978,-4.9794 c 0,0 1.7959,-0.325012 2.52611,-0.325012 0.90246,0 2.12043,0.370219 2.12043,2.165401 l -0.035,14.862299 c 0,0.159651 0.11564,0.595776 0.35714,0.595776 1.30932,0.119441 0.98788,-4.07693 1.31218,-4.07693 0.6455,0 1.06378,2.775215 1.87679,2.775215 1.14373,0 1.88536,-1.059978 2.36645,-0.816576 0.40972,0.243403 -0.23864,1.554397 -0.23864,2.367404 0,0.735918 2.11544,1.059265 4.73195,2.035729 2.28389,0.817528 4.16068,1.715952 4.89732,1.715952 0.56579,0 0.97289,-1.547735 1.46612,-1.547735 0.40615,0 0.49061,2.038346 1.38808,2.038346 0.73235,0 2.36289,-1.139922 2.77546,-0.814672 0.32501,0.242451 -0.81491,1.795891 0.0818,2.448058 0.65026,0.4071 2.20085,1.38547 2.20085,1.79613 0,0.24246 -3.02052,0.3243 -3.18017,0.3243 -0.57246,0.16727 -1.22558,1.96031 -1.6391,1.96031 -0.47848,0 -0.47848,-1.79304 -1.22082,-2.36931 -0.65312,-0.48395 -2.28389,1.71619 -3.01315,1.71619 -0.41447,0 0.48585,-1.63149 0.48585,-2.93796 0,-1.30528 -7.91331,-3.83638 -8.97424,-3.83638 -1.63244,0 -1.71904,2.037633 -2.04786,2.037633 -0.48419,0 -0.40877,-2.450203 -2.44259,-2.450203 -0.90247,0 -1.15039,0.492515 -1.15039,0.985982 l 0,19.583068 c 0,0.5715 0.16821,1.47183 1.23009,1.47183 1.46993,0 1.46993,-2.93986 1.95412,-2.93986 0.902,0 1.39546,3.02052 3.10499,3.02052 1.30267,0 2.36645,-1.7978 3.18327,-1.7978 0.5715,0 -0.97742,1.87489 -0.97742,2.77617 0,0.89581 8.07963,0.57151 11.18009,6.04033 0.89557,1.55083 0.89557,3.42381 1.22463,4.16163 0.483,0.81563 2.2827,0.65693 2.2827,1.22344 0,0.24459 -1.30433,0.5696 -1.7997,0.8958 -0.97266,0.57056 -0.64646,3.51114 -1.13517,3.51114 -0.73592,0 -1.47088,-2.04025 -2.2068,-1.14373 -1.30457,1.63244 -6.69059,4.73481 -9.13794,5.63323 -0.90223,0.3262 0.65336,3.0179 0.24721,3.26583 -0.40781,0.24435 -1.47374,-1.6353 -3.02718,-1.30814 -1.22368,0.24435 -0.64765,2.44925 -1.30077,2.44925 -0.32882,0 -1.55725,-3.10332 -2.45187,-2.85802 -0.97932,0.24436 -2.3693,0.48966 -2.3693,0.48966 l 0,8.24594 0,9.6e-4 z M 379.12005,97.503135 c -0.0143,-1.673838 -1.27721,-1.553445 -1.27721,-1.553445 -1.30552,0 -2.12209,2.608902 -2.44544,2.526103 -0.41352,-0.08161 0.0809,-2.200139 -0.41352,-2.526103 -0.40329,-0.409002 -9.05895,3.590126 -9.70755,4.23943 -0.57317,0.57342 0.24531,1.38809 0,1.96245 -0.16631,0.48585 -1.47635,0.32692 -1.87489,0.5677 -0.33548,0.32977 0.39854,1.7978 -0.0818,2.12757 -0.41519,0.23984 -1.30624,-1.47445 -1.87965,-0.65312 -0.25173,0.32335 -0.32501,0.89296 -0.32501,1.62959 0,4.97844 5.30155,7.01584 8.8981,8.24427 1.46232,0.48776 0.97004,-1.38999 1.46232,-1.47278 0.57341,-0.16346 0.65241,0.90127 1.30743,0.90127 0.49442,0 2.37026,-0.90127 2.77426,-0.57317 0.32906,0.2434 -0.97646,1.46898 -0.57317,1.9584 0.49442,0.409 4.12095,1.40427 4.15021,0.33191 l -0.0143,-17.710075"
       id="path46"
       style="fill:#393838;fill-opacity:1;fill-rule:nonzero;stroke:none" /><path
       d="m 104.48386,85.274483 4.82831,0 0,28.118567 -4.82831,0 0,-28.118567 z"
       id="path64"
       style="fill:#393838;fill-opacity:1;fill-rule:nonzero;stroke:none" /><path
       d="m 114.00391,85.274483 0,28.118567 4.47951,0 5.88044,-16.083114 0.0787,0 0,16.083114 4.3615,0 0,-28.118567 -4.20613,0 -6.15525,17.566137 -0.0752,0 0,-17.566137"
       id="path66"
       style="fill:#393838;fill-opacity:1;fill-rule:nonzero;stroke:none" /><path
       d="m 135.70551,109.18692 -4.67319,0 0,4.20613 14.17683,0 0,-4.20613 -4.67414,0 0,-23.912437 -4.8295,0"
       id="path68"
       style="fill:#393838;fill-opacity:1;fill-rule:nonzero;stroke:none" /><path
       d="m 147.43641,85.274483 0,28.118567 12.93126,0 0,-4.20613 -8.10057,0 0,-7.24425 6.23044,0 0,-4.206126 -6.23044,0 0,-8.257123 8.644,0 0,-4.204938"
       id="path70"
       style="fill:#393838;fill-opacity:1;fill-rule:nonzero;stroke:none" /><path
       d="m 168.60719,85.274483 -4.82713,0 0,28.118567 6.77506,0 c 5.41124,0 8.1817,-2.29769 8.1817,-8.29638 0,-4.51663 -1.75426,-6.346306 -3.38932,-7.086744 l 4.08455,-12.735443 -4.90493,0 -3.42738,11.64382 c -0.62219,-0.07995 -1.63506,-0.115872 -2.49255,-0.115872 l 0,-11.527948 z m 0,15.500187 1.71381,0 c 2.60842,0 3.58394,0.97789 3.58394,4.322 0,3.35434 -0.97552,4.32652 -3.58394,4.32652 l -1.71381,0 0,-8.64852"
       id="path72"
       style="fill:#393838;fill-opacity:1;fill-rule:nonzero;stroke:none" /><path
       d="m 182.47708,85.274483 0,28.118567 4.47974,0 5.88044,-16.083114 0.0776,0 0,16.083114 4.36387,0 0,-28.118567 -4.2085,0 -6.15287,17.566137 -0.0764,0 0,-17.566137"
       id="path74"
       style="fill:#393838;fill-opacity:1;fill-rule:nonzero;stroke:none" /><path
       d="m 204.69094,85.274483 -4.67437,0 5.18306,28.118567 5.99869,0 5.18069,-28.118567 -4.6708,0 -0.86107,6.230436 -5.29537,0 -0.86083,-6.230436 z m 1.55963,10.437753 3.89563,0 -1.90844,12.074944 -0.0764,0 -1.91082,-12.074944"
       id="path76"
       style="fill:#393838;fill-opacity:1;fill-rule:nonzero;stroke:none" /><path
       d="m 220.28273,109.18692 -4.67318,0 0,4.20613 14.17587,0 0,-4.20613 -4.67081,0 0,-23.912437 -4.83188,0"
       id="path78"
       style="fill:#393838;fill-opacity:1;fill-rule:nonzero;stroke:none" /><path
       d="m 231.9846,85.274483 4.82951,0 0,28.118567 -4.82951,0 0,-28.118567 z"
       id="path80"
       style="fill:#393838;fill-opacity:1;fill-rule:nonzero;stroke:none" /><path
       d="m 241.05616,106.57754 c 0,3.97439 2.33267,7.20833 7.39511,7.20833 5.06457,0 7.40057,-3.23394 7.40057,-7.20833 l 0,-14.483982 c 0,-3.977952 -2.336,-7.211897 -7.40057,-7.211897 -5.06244,0 -7.39511,3.233945 -7.39511,7.211897 l 0,14.483982 z m 4.82736,-14.37049 c 0,-2.103063 0.62219,-3.114741 2.56775,-3.114741 1.94888,0 2.57559,1.011678 2.57559,3.114741 l 0,14.25462 c 0,2.10426 -0.62671,3.11689 -2.57559,3.11689 -1.94556,0 -2.56775,-1.01168 -2.56775,-3.11689 l 0,-14.25462"
       id="path82"
       style="fill:#393838;fill-opacity:1;fill-rule:nonzero;stroke:none" /><path
       d="m 260.09271,85.274483 0,28.118567 4.48093,0 5.87806,-16.083114 0.0764,0 0,16.083114 4.36387,0 0,-28.118567 -4.20731,0 -6.14931,17.566137 -0.0764,0 0,-17.566137"
       id="path84"
       style="fill:#393838;fill-opacity:1;fill-rule:nonzero;stroke:none" /><path
       d="m 282.35534,85.274483 -4.6708,0 5.17831,28.118567 5.99869,0 5.18069,-28.118567 -4.67557,0 -0.85512,6.230436 -5.29656,0 -0.85964,-6.230436 z m 1.56177,10.437753 3.89444,0 -1.90939,12.074944 -0.0799,0 -1.90511,-12.074944"
       id="path86"
       style="fill:#393838;fill-opacity:1;fill-rule:nonzero;stroke:none" /><path
       d="m 296.83695,85.274483 0,28.118567 4.82499,0 0,-23.913629 7.59544,0 0,-4.204938"
       id="path88"
       style="fill:#393838;fill-opacity:1;fill-rule:nonzero;stroke:none" /><path
       d="m 111.22632,125.67072 -7.76675,0 8.60807,46.72208 9.96617,0 8.60807,-46.72208 -7.76818,0 -1.42401,10.35685 -8.80031,0 -1.42306,-10.35685 z m 2.58749,17.34271 6.47145,0 -3.17018,20.0644 -0.12872,0 -3.17255,-20.0644"
       id="path90"
       style="fill:#393838;fill-opacity:1;fill-rule:nonzero;stroke:none" /><path
       d="m 167.20054,172.3928 0,-46.72185 -6.99157,0 0,36.49966 -0.12515,0 -7.25021,-36.49989 -3.88634,0 -7.24545,36.50084 -0.12848,0 0,-36.49966 -6.98943,0 0,46.72185 10.54886,0 5.69272,-27.30747 0.1299,0 5.6951,27.30652"
       id="path92"
       style="fill:#393838;fill-opacity:1;fill-rule:nonzero;stroke:none" /><path
       d="m 174.56067,125.67072 0,46.72208 7.44364,0 9.77155,-26.72597 0.13086,0 0,26.72597 7.24663,0 0,-46.72208 -6.98824,0 -10.22552,29.1883 -0.1311,0 0,-29.1883"
       id="path94"
       style="fill:#393838;fill-opacity:1;fill-rule:nonzero;stroke:none" /><path
       d="m 206.51467,125.67072 0,46.72208 21.48984,0 0,-6.98611 -13.46327,0 0,-12.03664 10.35091,0 0,-6.99062 -10.35091,0 0,-13.71809 14.36574,0 0,-6.99062"
       id="path96"
       style="fill:#393838;fill-opacity:1;fill-rule:nonzero;stroke:none" /><path
       d="m 247.92401,160.87841 c -0.32334,4.00936 -2.45996,5.17736 -4.26989,5.17736 -2.58987,0 -4.01269,-1.68479 -4.01269,-4.59562 0,-7.96257 16.30772,-11.77944 16.30772,-24.46397 0,-7.69846 -5.1783,-11.9743 -12.68214,-11.9743 -7.44602,0 -11.71687,5.95586 -12.04021,12.94649 l 7.63374,1.09947 c 0.32549,-4.72505 2.20371,-7.05415 4.79358,-7.05415 2.78093,0 4.65915,1.4854 4.65915,4.26989 0,9.25572 -16.30773,11.71235 -16.30773,25.10947 0,7.44459 4.52829,11.64858 12.42495,11.64858 6.53498,0 10.41919,-4.72172 11.13179,-11.32428"
       id="path98"
       style="fill:#393838;fill-opacity:1;fill-rule:nonzero;stroke:none" /><path
       d="m 265.15062,165.40669 -7.76699,0 0,6.98611 23.55912,0 0,-6.98611 -7.76675,0 0,-39.73574 -8.02538,0"
       id="path100"
       style="fill:#393838;fill-opacity:1;fill-rule:nonzero;stroke:none" /><path
       d="m 300.19367,125.67072 -8.0299,0 0,19.41556 -9.70659,27.30652 8.15624,0 5.63037,-17.79217 0.1273,0 5.37293,17.79217 8.15386,0 -9.70421,-27.30652"
       id="path102"
       style="fill:#393838;fill-opacity:1;fill-rule:nonzero;stroke:none" /></g></svg>
